<mxfile host="app.diagrams.net" modified="2024-03-11T01:41:18.096Z" agent="Mozilla/5.0 (X11; Linux x86_64) AppleWebKit/537.36 (KHTML, like Gecko) Chrome/112.0.0.0 Safari/537.36" version="24.0.1" etag="01enJ6CmTQ_LTPpI8Z7M" type="github">
  <diagram name="Page-1" id="o1BHiC8lK3WUaxYGnt4t">
    <mxGraphModel>
      <root>
        <mxCell id="0" />
        <mxCell id="1" parent="0" />
      </root>
    </mxGraphModel>
  </diagram>
</mxfile>
